<svg width="145" height="49" viewBox="0 0 145 49" fill="none" xmlns="http://www.w3.org/2000/svg">
<rect x="0.5" y="0.5" width="144" height="47.3333" rx="6.5" fill="#0C0D10"/>
<path d="M98.5104 23.2013V25.9696H96.7752V27.785H98.5104V33.9535C98.5104 36.0599 99.4633 36.9024 101.86 36.9024C102.282 36.9024 102.683 36.8522 103.034 36.7921V34.9967C102.733 35.0268 102.543 35.0468 102.212 35.0468C101.138 35.0468 100.667 34.5453 100.667 33.4019V27.785H103.034V25.9696H100.667V23.2013H98.5104Z" fill="white"/>
<path d="M109.141 37.0528C112.33 37.0528 114.286 34.9164 114.286 31.3758C114.286 27.8552 112.32 25.7088 109.141 25.7088C105.951 25.7088 103.985 27.8552 103.985 31.3758C103.985 34.9164 105.941 37.0528 109.141 37.0528ZM109.141 35.1371C107.265 35.1371 106.212 33.763 106.212 31.3758C106.212 29.0087 107.265 27.6245 109.141 27.6245C111.006 27.6245 112.07 29.0087 112.07 31.3758C112.07 33.7529 111.006 35.1371 109.141 35.1371Z" fill="white"/>
<path d="M115.96 36.8422H118.116V30.3929C118.116 28.8582 119.27 27.8251 120.904 27.8251C121.286 27.8251 121.927 27.8954 122.108 27.9555V25.8292C121.877 25.769 121.466 25.7389 121.145 25.7389C119.721 25.7389 118.507 26.5212 118.196 27.5945H118.036V25.9194H115.96V36.8422Z" fill="white"/>
<path d="M127.463 27.5443C129.057 27.5443 130.1 28.6576 130.151 30.3728H124.634C124.754 28.6677 125.868 27.5443 127.463 27.5443ZM130.141 33.8934C129.739 34.7459 128.847 35.2173 127.543 35.2173C125.818 35.2173 124.704 34.0037 124.634 32.0879V31.9676H132.347V31.2153C132.347 27.785 130.512 25.7088 127.473 25.7088C124.393 25.7088 122.437 27.9254 122.437 31.4159C122.437 34.9064 124.353 37.0528 127.483 37.0528C129.98 37.0528 131.725 35.8492 132.217 33.8934H130.141Z" fill="white"/>
<path d="M84.3686 32.8086C84.5349 35.4907 86.77 37.2061 90.0967 37.2061C93.6521 37.2061 95.8768 35.4076 95.8768 32.5383C95.8768 30.2824 94.6085 29.0349 91.5314 28.3176L89.8784 27.9121C87.924 27.4547 87.1339 26.8413 87.1339 25.7706C87.1339 24.4191 88.3606 23.5354 90.2007 23.5354C91.9472 23.5354 93.1531 24.3983 93.3714 25.781H95.6377C95.5026 23.2548 93.2779 21.4771 90.2319 21.4771C86.9572 21.4771 84.774 23.2548 84.774 25.9265C84.774 28.1304 86.0111 29.4403 88.7245 30.0745L90.6581 30.5423C92.6437 31.0101 93.517 31.6962 93.517 32.8398C93.517 34.1705 92.1447 35.1373 90.2734 35.1373C88.267 35.1373 86.874 34.2328 86.6765 32.8086H84.3686Z" fill="white"/>
<path d="M62.0297 25.7389C60.5453 25.7389 59.2614 26.4811 58.5994 27.7248H58.4389V25.9194H56.3627V40.4731H58.5192V35.1872H58.6897C59.2614 36.3407 60.4951 37.0228 62.0498 37.0228C64.8081 37.0228 66.5633 34.8462 66.5633 31.3758C66.5633 27.9054 64.8081 25.7389 62.0297 25.7389ZM61.4179 35.0869C59.6125 35.0869 58.4791 33.6627 58.4791 31.3858C58.4791 29.099 59.6125 27.6747 61.4279 27.6747C63.2534 27.6747 64.3467 29.0689 64.3467 31.3758C64.3467 33.6928 63.2534 35.0869 61.4179 35.0869Z" fill="white"/>
<path d="M74.1092 25.7389C72.6247 25.7389 71.3409 26.4811 70.6789 27.7248H70.5184V25.9194H68.4422V40.4731H70.5986V35.1872H70.7691C71.3409 36.3407 72.5746 37.0228 74.1292 37.0228C76.8875 37.0228 78.6428 34.8462 78.6428 31.3758C78.6428 27.9054 76.8875 25.7389 74.1092 25.7389ZM73.4973 35.0869C71.6919 35.0869 70.5585 33.6627 70.5585 31.3858C70.5585 29.099 71.6919 27.6747 73.5074 27.6747C75.3328 27.6747 76.4261 29.0689 76.4261 31.3758C76.4261 33.6928 75.3328 35.0869 73.4973 35.0869Z" fill="white"/>
<path d="M52.4936 36.8422H54.9678L49.5516 21.8409H47.0462L41.6299 36.8422H44.0209L45.4036 32.8606H51.1214L52.4936 36.8422ZM48.1793 24.5646H48.356L50.5288 30.9061H45.9962L48.1793 24.5646Z" fill="white"/>
<path d="M43.0786 10.5255V17.7622H45.6915C47.8479 17.7622 49.0967 16.4332 49.0967 14.1213C49.0967 11.8445 47.8379 10.5255 45.6915 10.5255H43.0786ZM44.202 11.5486H45.5661C47.0656 11.5486 47.9532 12.5014 47.9532 14.1363C47.9532 15.7963 47.0806 16.7392 45.5661 16.7392H44.202V11.5486Z" fill="white"/>
<path d="M52.9212 17.8675C54.5159 17.8675 55.4939 16.7993 55.4939 15.029C55.4939 13.2687 54.5109 12.1955 52.9212 12.1955C51.3264 12.1955 50.3434 13.2687 50.3434 15.029C50.3434 16.7993 51.3214 17.8675 52.9212 17.8675ZM52.9212 16.9097C51.9833 16.9097 51.4568 16.2226 51.4568 15.029C51.4568 13.8455 51.9833 13.1534 52.9212 13.1534C53.854 13.1534 54.3856 13.8455 54.3856 15.029C54.3856 16.2176 53.854 16.9097 52.9212 16.9097Z" fill="white"/>
<path d="M63.8219 12.3008H62.7436L61.7707 16.4683H61.6855L60.5621 12.3008H59.529L58.4056 16.4683H58.3254L57.3474 12.3008H56.2542L57.7587 17.7622H58.867L59.9904 13.7402H60.0756L61.204 17.7622H62.3224L63.8219 12.3008Z" fill="white"/>
<path d="M65.0636 17.7622H66.1418V14.5676C66.1418 13.7151 66.6484 13.1835 67.4458 13.1835C68.2432 13.1835 68.6243 13.6198 68.6243 14.4974V17.7622H69.7025V14.2266C69.7025 12.9277 69.0305 12.1955 67.8119 12.1955C66.9894 12.1955 66.4478 12.5616 66.182 13.1684H66.1017V12.3008H65.0636V17.7622Z" fill="white"/>
<path d="M71.4006 17.7622H72.4789V10.1694H71.4006V17.7622Z" fill="white"/>
<path d="M76.534 17.8675C78.1288 17.8675 79.1068 16.7993 79.1068 15.029C79.1068 13.2687 78.1238 12.1955 76.534 12.1955C74.9393 12.1955 73.9563 13.2687 73.9563 15.029C73.9563 16.7993 74.9342 17.8675 76.534 17.8675ZM76.534 16.9097C75.5962 16.9097 75.0696 16.2226 75.0696 15.029C75.0696 13.8455 75.5962 13.1534 76.534 13.1534C77.4668 13.1534 77.9984 13.8455 77.9984 15.029C77.9984 16.2176 77.4668 16.9097 76.534 16.9097Z" fill="white"/>
<path d="M82.3194 16.9448C81.7326 16.9448 81.3064 16.6589 81.3064 16.1674C81.3064 15.686 81.6474 15.4302 82.3997 15.3801L83.7337 15.2948V15.7512C83.7337 16.4282 83.1318 16.9448 82.3194 16.9448ZM82.0436 17.8525C82.7607 17.8525 83.3575 17.5416 83.6835 16.9949H83.7688V17.7622H84.8069V14.031C84.8069 12.8776 84.0346 12.1955 82.6654 12.1955C81.4267 12.1955 80.5441 12.7973 80.4338 13.7351H81.4769C81.5972 13.349 82.0135 13.1283 82.6153 13.1283C83.3525 13.1283 83.7337 13.4543 83.7337 14.031V14.5024L82.2542 14.5877C80.9553 14.6679 80.2231 15.2346 80.2231 16.2176C80.2231 17.2156 80.9904 17.8525 82.0436 17.8525Z" fill="white"/>
<path d="M88.4659 17.8525C89.2181 17.8525 89.855 17.4964 90.181 16.8996H90.2663V17.7622H91.2994V10.1694H90.2211V13.1684H90.1409C89.845 12.5666 89.2131 12.2106 88.4659 12.2106C87.0867 12.2106 86.1991 13.3038 86.1991 15.029C86.1991 16.7592 87.0767 17.8525 88.4659 17.8525ZM88.7718 13.1785C89.6745 13.1785 90.2412 13.8956 90.2412 15.034C90.2412 16.1775 89.6795 16.8846 88.7718 16.8846C87.859 16.8846 87.3124 16.1875 87.3124 15.029C87.3124 13.8806 87.8641 13.1785 88.7718 13.1785Z" fill="white"/>
<path d="M98.2914 17.8675C99.8861 17.8675 100.864 16.7993 100.864 15.029C100.864 13.2687 99.8811 12.1955 98.2914 12.1955C96.6966 12.1955 95.7136 13.2687 95.7136 15.029C95.7136 16.7993 96.6916 17.8675 98.2914 17.8675ZM98.2914 16.9097C97.3535 16.9097 96.827 16.2226 96.827 15.029C96.827 13.8455 97.3535 13.1534 98.2914 13.1534C99.2242 13.1534 99.7558 13.8455 99.7558 15.029C99.7558 16.2176 99.2242 16.9097 98.2914 16.9097Z" fill="white"/>
<path d="M102.291 17.7622H103.37V14.5676C103.37 13.7151 103.876 13.1835 104.674 13.1835C105.471 13.1835 105.852 13.6198 105.852 14.4974V17.7622H106.93V14.2266C106.93 12.9277 106.258 12.1955 105.04 12.1955C104.217 12.1955 103.676 12.5616 103.41 13.1684H103.329V12.3008H102.291V17.7622Z" fill="white"/>
<path d="M111.896 10.9418V12.3259H111.029V13.2336H111.896V16.3179C111.896 17.3711 112.373 17.7923 113.571 17.7923C113.782 17.7923 113.982 17.7672 114.158 17.7372V16.8395C114.008 16.8545 113.912 16.8645 113.747 16.8645C113.21 16.8645 112.974 16.6138 112.974 16.0421V13.2336H114.158V12.3259H112.974V10.9418H111.896Z" fill="white"/>
<path d="M115.605 17.7622H116.684V14.5727C116.684 13.7452 117.175 13.1885 118.058 13.1885C118.82 13.1885 119.226 13.6298 119.226 14.5024V17.7622H120.304V14.2366C120.304 12.9377 119.587 12.2005 118.424 12.2005C117.601 12.2005 117.025 12.5666 116.759 13.1785H116.674V10.1694H115.605V17.7622Z" fill="white"/>
<path d="M124.194 13.1133C124.992 13.1133 125.513 13.6699 125.538 14.5275H122.78C122.84 13.675 123.397 13.1133 124.194 13.1133ZM125.533 16.2878C125.333 16.7141 124.886 16.9498 124.234 16.9498C123.372 16.9498 122.815 16.343 122.78 15.3851V15.3249H126.636V14.9488C126.636 13.2336 125.719 12.1955 124.199 12.1955C122.66 12.1955 121.682 13.3038 121.682 15.0491C121.682 16.7943 122.639 17.8675 124.204 17.8675C125.453 17.8675 126.326 17.2657 126.571 16.2878H125.533Z" fill="white"/>
<path d="M29.9294 24.53C29.9556 22.4988 31.0464 20.5769 32.7769 19.513C31.6852 17.9538 29.8567 16.9653 27.9543 16.9058C25.9252 16.6928 23.9581 18.1199 22.9241 18.1199C21.8701 18.1199 20.2781 16.9269 18.5638 16.9622C16.3293 17.0344 14.2462 18.3048 13.159 20.2584C10.8221 24.3044 12.5653 30.2506 14.8038 33.5211C15.9238 35.1226 17.2328 36.9115 18.9455 36.848C20.6216 36.7785 21.2475 35.7793 23.2707 35.7793C25.275 35.7793 25.8623 36.848 27.6098 36.8077C29.4082 36.7785 30.5414 35.1991 31.6221 33.5825C32.4268 32.4414 33.046 31.1802 33.4568 29.8457C31.3433 28.9518 29.9319 26.8248 29.9294 24.53Z" fill="white"/>
<path d="M26.6286 14.7549C27.6092 13.5778 28.0923 12.0647 27.9754 10.5371C26.4772 10.6945 25.0934 11.4105 24.0995 12.5425C23.1277 13.6485 22.6219 15.1349 22.7175 16.6042C24.2162 16.6196 25.6895 15.923 26.6286 14.7549Z" fill="white"/>
<rect x="0.5" y="0.5" width="144" height="47.3333" rx="6.5" stroke="#A6A6A6"/>
</svg>
