<svg width="160" height="48" viewBox="0 0 160 48" fill="none" xmlns="http://www.w3.org/2000/svg">
<rect x="0.5" y="0.5" width="159" height="46.4074" rx="4.5" fill="black"/>
<path d="M126.737 35.5557H128.949V20.739H126.737V35.5557ZM146.657 26.0766L144.122 32.5002H144.046L141.415 26.0766H139.033L142.979 35.0544L140.729 40.0488H143.035L149.116 26.0766H146.657ZM134.114 33.8729C133.391 33.8729 132.38 33.5103 132.38 32.6145C132.38 31.471 133.639 31.0326 134.724 31.0326C135.696 31.0326 136.155 31.2419 136.745 31.528C136.573 32.9006 135.392 33.8729 134.114 33.8729ZM134.382 25.7524C132.781 25.7524 131.123 26.458 130.436 28.021L132.399 28.8404C132.819 28.021 133.6 27.7543 134.42 27.7543C135.564 27.7543 136.726 28.44 136.745 29.6604V29.8126C136.345 29.5839 135.486 29.2409 134.439 29.2409C132.322 29.2409 130.169 30.4033 130.169 32.5765C130.169 34.559 131.904 35.8363 133.847 35.8363C135.334 35.8363 136.155 35.1691 136.668 34.3872H136.745V35.5316H138.881V29.8506C138.881 27.2201 136.916 25.7524 134.382 25.7524ZM120.714 27.8802H117.569V22.8016H120.714C122.368 22.8016 123.306 24.1701 123.306 25.3408C123.306 26.489 122.368 27.8802 120.714 27.8802ZM120.657 20.739H115.358V35.5557H117.569V29.9423H120.657C123.108 29.9423 125.518 28.1682 125.518 25.3408C125.518 22.514 123.108 20.739 120.657 20.739ZM91.761 33.8756C90.2331 33.8756 88.9544 32.5959 88.9544 30.84C88.9544 29.0636 90.2331 27.7658 91.761 27.7658C93.2693 27.7658 94.4531 29.0636 94.4531 30.84C94.4531 32.5959 93.2693 33.8756 91.761 33.8756ZM94.3003 26.9062H94.2239C93.7277 26.3145 92.7725 25.7798 91.5703 25.7798C89.0494 25.7798 86.7392 27.995 86.7392 30.84C86.7392 33.6654 89.0494 35.8613 91.5703 35.8613C92.7725 35.8613 93.7277 35.3265 94.2239 34.7159H94.3003V35.4409C94.3003 37.3701 93.2693 38.4006 91.6082 38.4006C90.253 38.4006 89.4129 37.427 89.0688 36.6062L87.1406 37.408C87.6939 38.7441 89.1637 40.3867 91.6082 40.3867C94.2054 40.3867 96.4012 38.8589 96.4012 35.1353V26.0854H94.3003V26.9062ZM97.929 35.5557H100.143V20.739H97.929V35.5557ZM103.408 30.6678C103.351 28.72 104.917 27.7274 106.043 27.7274C106.922 27.7274 107.666 28.1668 107.915 28.7965L103.408 30.6678ZM110.282 28.9872C109.862 27.8612 108.583 25.7798 105.967 25.7798C103.37 25.7798 101.212 27.8228 101.212 30.8205C101.212 33.6465 103.351 35.8613 106.215 35.8613C108.525 35.8613 109.862 34.4487 110.416 33.6274L108.697 32.4816C108.124 33.3219 107.342 33.8756 106.215 33.8756C105.089 33.8756 104.286 33.3599 103.772 32.3479L110.511 29.5603L110.282 28.9872ZM56.5837 27.3265V29.4649H61.7008C61.548 30.6678 61.147 31.546 60.536 32.1571C59.7911 32.9015 58.6263 33.7228 56.5837 33.7228C53.4331 33.7228 50.9702 31.1834 50.9702 28.033C50.9702 24.8825 53.4331 22.3428 56.5837 22.3428C58.2832 22.3428 59.5239 23.0112 60.4406 23.8705L61.9494 22.3617C60.6698 21.1399 58.9707 20.2044 56.5837 20.2044C52.2679 20.2044 48.6401 23.7177 48.6401 28.033C48.6401 32.3479 52.2679 35.8613 56.5837 35.8613C58.9128 35.8613 60.6698 35.0974 62.0443 33.6654C63.4573 32.2525 63.8967 30.2668 63.8967 28.6627C63.8967 28.1668 63.8581 27.7085 63.7818 27.3265H56.5837ZM69.7143 33.8756C68.1864 33.8756 66.8689 32.6154 66.8689 30.8205C66.8689 29.0066 68.1864 27.7658 69.7143 27.7658C71.2415 27.7658 72.5591 29.0066 72.5591 30.8205C72.5591 32.6154 71.2415 33.8756 69.7143 33.8756ZM69.7143 25.7798C66.9258 25.7798 64.654 27.8992 64.654 30.8205C64.654 33.7228 66.9258 35.8613 69.7143 35.8613C72.5017 35.8613 74.7739 33.7228 74.7739 30.8205C74.7739 27.8992 72.5017 25.7798 69.7143 25.7798ZM80.7517 33.8756C79.2249 33.8756 77.9069 32.6154 77.9069 30.8205C77.9069 29.0066 79.2249 27.7658 80.7517 27.7658C82.2795 27.7658 83.5966 29.0066 83.5966 30.8205C83.5966 32.6154 82.2795 33.8756 80.7517 33.8756ZM80.7517 25.7798C77.9642 25.7798 75.6925 27.8992 75.6925 30.8205C75.6925 33.7228 77.9642 35.8613 80.7517 35.8613C83.5402 35.8613 85.8119 33.7228 85.8119 30.8205C85.8119 27.8992 83.5402 25.7798 80.7517 25.7798Z" fill="white"/>
<path d="M52.7137 15.6851C51.6512 15.6851 50.7372 15.3112 50.0003 14.5744C49.263 13.8371 48.8896 12.914 48.8896 11.8406C48.8896 10.7672 49.2632 9.84571 50.0003 9.10681C50.7372 8.36992 51.6512 7.99616 52.7137 7.99616C53.2551 7.99616 53.7603 8.08966 54.2431 8.28436C54.7261 8.47907 55.1213 8.74937 55.4325 9.10311L55.5059 9.18667L54.6769 10.0154L54.594 9.91352C54.3877 9.65996 54.1252 9.46297 53.7927 9.31977C53.4613 9.17694 53.0984 9.11098 52.7137 9.11098C51.9653 9.11098 51.3443 9.36513 50.8258 9.88181C50.8256 9.88193 50.8254 9.88192 50.8253 9.88205C50.3185 10.4092 50.0637 11.0509 50.0637 11.8406C50.0637 12.6309 50.3188 13.2728 50.8262 13.8001C51.3448 14.3166 51.9657 14.5721 52.7137 14.5721C53.3988 14.5721 53.9654 14.3808 54.4109 14.0022H54.4112C54.8259 13.6498 55.0748 13.1736 55.1628 12.5665H52.5952V11.4739H56.2725L56.2883 11.5739C56.3184 11.766 56.3396 11.9514 56.3396 12.1295C56.3396 13.149 56.0288 13.9812 55.419 14.5934C54.7307 15.3231 53.8254 15.6851 52.7137 15.6851L52.7137 15.6851ZM84.6447 15.6851C83.5806 15.6851 82.6773 15.311 81.9498 14.5744C81.9498 14.5743 81.9497 14.5743 81.9496 14.5742C81.9495 14.5741 81.9495 14.574 81.9494 14.5739C81.221 13.8453 80.8595 12.9219 80.8595 11.8406C80.8595 10.7592 81.221 9.83591 81.9494 9.10726C81.9494 9.10718 81.9495 9.10715 81.9496 9.10703L81.9498 9.10679C82.6773 8.37008 83.5806 7.99614 84.6447 7.99614C85.7068 7.99614 86.6104 8.37017 87.3378 9.1179C88.0664 9.84643 88.4281 10.768 88.4281 11.8406C88.4281 12.9219 88.0667 13.8453 87.3383 14.5739L87.338 14.5742C86.6102 15.3113 85.6982 15.685 84.6447 15.685L84.6447 15.6851ZM57.392 15.5258V8.15542H57.5105H61.7938V9.27024H58.5457V11.2943H61.4753V12.3869H58.5457V14.4128H61.7938V15.5258H57.392ZM64.4878 15.5258V9.27024H62.4952V8.15542H67.6341V9.27024H67.5156H65.6415V15.5258H64.4878ZM70.9184 15.5258V8.15542H72.0721V8.27394V15.5258H70.9184ZM74.9762 15.5258V9.27024H72.9836V8.15542H78.1225V9.27024H78.004H76.1299V15.5258H74.9762ZM89.4521 15.5258V8.15542H90.7531L94.064 13.4559L94.0355 12.4496V8.15542H95.1892V15.5258H94.0475L90.5774 9.9575L90.6059 10.9631V10.9647V15.5258H89.4521ZM84.6447 14.5721C85.3932 14.5721 86.0041 14.3168 86.5021 13.801L86.5029 13.8001L86.5036 13.7994C87.0087 13.2941 87.2559 12.6437 87.2559 11.8406C87.2559 11.0394 87.0086 10.3868 86.5036 9.88177L86.5029 9.88106L86.5021 9.88035C86.0042 9.36464 85.3933 9.1109 84.6447 9.1109C83.8949 9.1109 83.2841 9.3642 82.7767 9.87989L82.7762 9.88036C82.2804 10.3976 82.0336 11.0396 82.0336 11.8405C82.0336 12.6434 82.2803 13.2834 82.7762 13.8007L82.7767 13.8012C83.2841 14.317 83.8951 14.572 84.6447 14.572V14.5721Z" fill="white"/>
<path d="M24.5507 23.0203L11.9326 36.4129C11.9331 36.4157 11.934 36.418 11.9345 36.4208C12.3215 37.875 13.6497 38.9458 15.2261 38.9458C15.8563 38.9458 16.4479 38.7754 16.9553 38.4763L16.9956 38.4527L31.1989 30.2569L24.5507 23.0203Z" fill="#EA4335"/>
<path d="M37.3165 20.7396L37.3044 20.7313L31.1725 17.1766L24.2642 23.3239L31.1965 30.2554L37.2961 26.736C38.3655 26.1587 39.0914 25.0313 39.0914 23.7313C39.0914 22.4406 38.3752 21.3188 37.3165 20.7396Z" fill="#FBBC04"/>
<path d="M11.9321 10.9945C11.8563 11.2742 11.8164 11.5672 11.8164 11.8714V35.5367C11.8164 35.8404 11.8558 36.1344 11.9326 36.4131L24.9849 23.3631L11.9321 10.9945Z" fill="#4285F4"/>
<path d="M24.6437 23.7036L31.1748 17.1744L16.9877 8.94901C16.472 8.64015 15.8701 8.46189 15.2261 8.46189C13.6497 8.46189 12.3197 9.53461 11.9326 10.9906C11.9321 10.992 11.9321 10.993 11.9321 10.9943L24.6437 23.7036Z" fill="#34A853"/>
<rect x="0.5" y="0.5" width="159" height="46.4074" rx="4.5" stroke="#A6A6A6"/>
</svg>
