<svg width="179" height="177" viewBox="0 0 179 177" fill="none" xmlns="http://www.w3.org/2000/svg">
<g clip-path="url(#clip0_110_248)">
<path d="M100.918 109.372C101.535 109.505 101.937 109.615 102.339 109.725C106.108 111.122 109.923 112.503 113.691 113.9C114.761 114.28 115.785 114.676 116.843 115.163C117.465 115.45 118.076 115.845 118.64 116.256C119.945 117.272 120.104 118.401 119.183 119.825C118.846 120.311 118.493 120.751 118.076 121.163C115.915 123.561 113.562 125.721 111.052 127.732C110.693 128.019 110.334 128.307 109.901 128.673C110.184 128.879 110.404 129.055 110.67 129.216C118.282 132.912 125.517 137.264 132.912 141.351C133.24 141.539 133.568 141.728 133.913 141.962C134.37 142.362 134.555 142.862 134.359 143.45C134.208 144.022 133.776 144.388 133.197 144.499C132.754 144.559 132.278 144.528 131.802 144.497C130.941 144.402 130.017 144.278 129.139 144.138C128.708 144.09 128.278 144.043 127.892 143.978C125.842 143.599 123.791 143.22 121.724 142.795C120.382 142.516 118.977 142.209 117.675 141.76C110.968 139.536 104.306 137.296 97.8113 134.53C94.6094 133.13 91.2809 132.086 88.0097 130.919C87.6986 130.775 87.3589 130.694 87.0478 130.551C86.0641 129.984 85.9677 128.884 86.8956 128.18C87.1801 127.972 87.4815 127.809 87.7996 127.691C89.9188 126.857 92.038 126.024 94.1739 125.235C94.5375 125.101 94.8556 124.984 95.4464 124.765C93.9314 123.879 92.6486 123.061 91.2916 122.323C89.5446 121.367 87.8143 120.457 86.0672 119.501C85.6771 119.283 85.3422 119.355 84.9787 119.489C78.2792 122.324 71.2967 123.972 64.1032 124.768C56.6657 125.603 49.4374 124.346 42.4427 121.765C38.255 120.212 35.0546 117.417 32.6241 113.77C31.932 112.735 31.4504 111.57 30.8947 110.484C27.7953 104.606 26.8297 98.3523 27.5099 91.8014C28.069 86.7413 29.3412 81.9342 31.1518 77.1865C33.7791 70.175 37.3733 63.6846 41.5275 57.4521C48.4304 47.0552 56.4225 37.6504 66.0232 29.6657C71.114 25.4112 76.5138 21.714 82.4764 18.8418C89.6156 15.3804 97.1169 13.1795 105.107 12.8635C113.052 12.5644 120.059 15.0386 126.122 20.1331C129.696 23.0999 132.689 26.591 134.918 30.6735C137.934 36.325 139.031 42.3748 138.454 48.7844C138.016 53.3349 136.899 57.7233 135.488 62.0138C129.767 79.6686 119.627 94.3069 105.193 105.986C104.072 106.865 102.967 107.789 101.846 108.668C101.619 108.752 101.425 108.926 100.918 109.372Z" fill="#FFD6FF"/>
<path d="M40.9901 42.9856C40.7656 43.6365 40.6271 44.1007 40.4264 44.5363C38.9929 47.6473 37.5761 50.8038 36.0971 53.9316C33.7413 58.8806 31.2442 63.7268 28.9505 68.7045C26.1813 74.6322 24.2952 80.8537 23.3996 87.3808C22.4705 93.8168 22.8285 100.243 24.8372 106.524C26.3211 111.243 28.5607 115.632 31.7785 119.453C32.6069 120.438 33.617 121.356 34.565 122.246C35.2137 122.884 35.8457 123.477 36.449 124.132C36.9565 124.668 36.9425 125.189 36.6341 125.613C36.2803 126.053 35.7301 126.102 35.0743 125.724C34.8087 125.564 34.543 125.404 34.306 125.181C30.6225 122.617 27.9241 119.223 25.7327 115.385C20.569 106.292 19.2304 96.5102 20.729 86.3011C21.6105 80.2955 23.3128 74.555 25.7281 69.0677C28.8148 62.0417 32.4615 55.2736 36.2494 48.6084C37.136 47.0934 38.1807 45.7267 39.2085 44.3145C39.5742 43.7665 40.0644 43.2757 40.9901 42.9856Z" fill="#FFD6FF"/>
<path d="M141.786 28.2937C143.636 33.4458 144.266 38.7901 144.193 44.1875C144.118 50.9794 142.995 57.5904 140.654 63.9796C139.694 66.5544 138.626 69.1174 137.587 71.6181C137.432 72.0369 137.186 72.4892 136.952 72.8339C136.529 73.5064 136.045 73.7364 135.564 73.5524C135.067 73.3231 134.882 72.8232 135.119 72.0646C135.2 71.7248 135.343 71.4137 135.486 71.1026C136.544 68.2335 137.648 65.3475 138.598 62.4665C141.335 54.0721 142.179 45.4471 140.949 36.6581C140.199 31.4096 138.251 26.5518 135.428 22.1204C133.847 19.6571 131.64 17.735 129.45 15.8583C126.865 13.611 124.045 11.7084 120.963 10.2126C120.199 9.82312 119.481 9.41684 118.747 8.96512C118.419 8.77632 118.12 8.5253 117.82 8.27428C117.504 7.97781 117.097 7.7149 117.327 7.21713C117.528 6.78159 118.004 6.81239 118.343 6.89353C119.238 7.07959 120.071 7.23697 120.908 7.54747C125.295 9.07832 129.143 11.5306 132.478 14.6889C134.69 16.7642 137.009 18.8513 138.475 21.5634C139.603 23.7805 140.641 26.0312 141.786 28.2937Z" fill="#FFD6FF"/>
</g>
<defs>
<clipPath id="clip0_110_248">
<rect width="140" height="136.125" fill="white" transform="translate(0.520508 48.7422) rotate(-20.2602)"/>
</clipPath>
</defs>
</svg>
