<svg width="162" height="54" viewBox="0 0 162 54" fill="none" xmlns="http://www.w3.org/2000/svg">
<path fill-rule="evenodd" clip-rule="evenodd" d="M1 11.4317V43.4404L8.55244 31.4371L15.7902 31.1037C24.6014 27.7695 24.348 13.4322 15.2221 11.4317H1ZM8.23796 17.7666V24.7685H12.9582C15.7904 23.7682 15.7904 18.7669 12.9582 17.7666H8.23796Z" fill="#08ADAD" stroke="#08ADAD" stroke-width="0.333607"/>
<path fill-rule="evenodd" clip-rule="evenodd" d="M6.93133 36.61L9.07989 38.2363C6.96819 40.9123 5.18316 41.9011 1.71338 43.4404C5.82661 42.7023 7.87574 41.9194 10.6146 39.212L12.7631 40.5131V33.0322L6.93133 36.61Z" fill="#08ADAD"/>
<path d="M30.3952 41.4961C28.6311 41.4961 27.184 41.2205 26.0539 40.6692C24.9238 40.0904 24.0832 39.3324 23.5319 38.3953C22.9806 37.4581 22.705 36.4245 22.705 35.2944C22.705 33.3925 23.4492 31.849 24.9376 30.6637C26.426 29.4785 28.6587 28.8859 31.6355 28.8859H36.845V28.3898C36.845 26.984 36.4453 25.9504 35.646 25.2889C34.8466 24.6274 33.8544 24.2966 32.6691 24.2966C31.5942 24.2966 30.657 24.5585 29.8577 25.0822C29.0583 25.5783 28.5622 26.3225 28.3693 27.3148H23.2011C23.3389 25.8264 23.8351 24.5309 24.6895 23.4284C25.5716 22.3258 26.7017 21.4852 28.0798 20.9063C29.458 20.2999 31.0016 19.9967 32.7105 19.9967C35.6322 19.9967 37.9337 20.7272 39.6151 22.188C41.2965 23.6489 42.1371 25.7161 42.1371 28.3898V41H37.6305L37.1344 37.6924C36.528 38.7949 35.6735 39.7045 34.571 40.4212C33.496 41.1378 32.1041 41.4961 30.3952 41.4961ZM31.5942 37.3616C33.1101 37.3616 34.2816 36.8655 35.1085 35.8732C35.963 34.8809 36.5004 33.6544 36.7209 32.1935H32.2143C30.8086 32.1935 29.8025 32.4554 29.1962 32.9791C28.5898 33.4752 28.2866 34.0954 28.2866 34.8396C28.2866 35.6389 28.5898 36.2591 29.1962 36.7001C29.8025 37.1411 30.6019 37.3616 31.5942 37.3616ZM45.8343 50.0959L50.589 39.6356H49.3486L41.369 20.4929H47.116L52.8629 34.9223L58.858 20.4929H64.4809L51.4572 50.0959H45.8343ZM72.1769 41.4961C70.3577 41.4961 68.759 41.2067 67.3809 40.6279C66.0027 40.0215 64.9002 39.1946 64.0733 38.1472C63.2464 37.0998 62.7502 35.887 62.5848 34.5088H67.9183C68.0837 35.3082 68.5247 35.9973 69.2414 36.5761C69.9856 37.1274 70.9365 37.403 72.0942 37.403C73.2518 37.403 74.0925 37.1687 74.6162 36.7001C75.1675 36.2315 75.4431 35.6941 75.4431 35.0877C75.4431 34.2056 75.0572 33.613 74.2855 33.3098C73.5137 32.9791 72.4387 32.6621 71.0606 32.3589C70.1785 32.1659 69.2827 31.9317 68.3731 31.656C67.4635 31.3804 66.6229 31.0359 65.8511 30.6224C65.1069 30.1814 64.5005 29.6301 64.0319 28.9686C63.5633 28.2795 63.329 27.4388 63.329 26.4466C63.329 24.6274 64.0457 23.0976 65.479 21.8573C66.9398 20.6169 68.9795 19.9967 71.598 19.9967C74.0236 19.9967 75.9531 20.5618 77.3863 21.6919C78.8472 22.822 79.7155 24.3793 79.9911 26.3639H74.9883C74.6851 24.8479 73.5413 24.0899 71.5567 24.0899C70.5644 24.0899 69.7926 24.2828 69.2414 24.6687C68.7177 25.0546 68.4558 25.537 68.4558 26.1158C68.4558 26.7222 68.8555 27.2045 69.6548 27.5629C70.4542 27.9212 71.5154 28.252 72.8384 28.5551C74.2717 28.8859 75.5809 29.258 76.7662 29.6715C77.979 30.0574 78.9437 30.65 79.6603 31.4493C80.377 32.2211 80.7353 33.3374 80.7353 34.7982C80.7629 36.0662 80.4321 37.21 79.743 38.2299C79.0539 39.2497 78.0616 40.0491 76.7662 40.6279C75.4707 41.2067 73.9409 41.4961 72.1769 41.4961ZM92.1575 41.4961C90.0902 41.4961 88.2573 41.0551 86.6586 40.1731C85.0599 39.2911 83.8058 38.0507 82.8962 36.452C81.9866 34.8534 81.5318 33.0066 81.5318 30.9118C81.5318 28.7894 81.9728 26.9014 82.8549 25.2475C83.7645 23.5937 85.0048 22.3121 86.5759 21.4025C88.1746 20.4653 90.0489 19.9967 92.1988 19.9967C94.211 19.9967 95.9888 20.4377 97.5324 21.3198C99.0759 22.2018 100.275 23.4146 101.129 24.9581C102.011 26.4741 102.452 28.1693 102.452 30.0436C102.452 30.3468 102.439 30.6637 102.411 30.9945C102.411 31.3253 102.397 31.6698 102.37 32.0281H86.7826C86.8929 33.6268 87.4442 34.8809 88.4364 35.7905C89.4563 36.7001 90.6829 37.1549 92.1162 37.1549C93.1911 37.1549 94.0869 36.9206 94.8036 36.452C95.5478 35.9559 96.0991 35.322 96.4574 34.5502H101.832C101.446 35.8457 100.799 37.0309 99.889 38.1058C99.007 39.1533 97.9045 39.9802 96.5814 40.5865C95.2859 41.1929 93.8113 41.4961 92.1575 41.4961ZM92.1988 24.2966C90.9034 24.2966 89.7595 24.6687 88.7672 25.4129C87.7749 26.1296 87.141 27.2321 86.8653 28.7205H97.0776C96.9949 27.3699 96.4987 26.295 95.5891 25.4956C94.6795 24.6963 93.5494 24.2966 92.1988 24.2966ZM103.673 41V20.4929H108.345L108.759 23.9659C109.393 22.7531 110.302 21.7883 111.488 21.0717C112.7 20.3551 114.12 19.9967 115.746 19.9967C118.282 19.9967 120.253 20.7961 121.658 22.3947C123.064 23.9934 123.767 26.3363 123.767 29.4234V41H118.475V29.9195C118.475 28.1555 118.117 26.8049 117.4 25.8677C116.683 24.9306 115.567 24.462 114.051 24.462C112.563 24.462 111.336 24.9857 110.371 26.0331C109.434 27.0805 108.966 28.5414 108.966 30.4157V41H103.673ZM134.735 41C132.585 41 130.862 40.4763 129.567 39.4289C128.271 38.3815 127.623 36.521 127.623 33.8473V24.9168H124.109V20.4929H127.623L128.244 14.994H132.916V20.4929H138.456V24.9168H132.916V33.8887C132.916 34.8809 133.122 35.57 133.536 35.9559C133.977 36.3142 134.721 36.4934 135.768 36.4934H138.332V41H134.735ZM146.84 41.4961C145.075 41.4961 143.628 41.2205 142.498 40.6692C141.368 40.0904 140.528 39.3324 139.976 38.3953C139.425 37.4581 139.149 36.4245 139.149 35.2944C139.149 33.3925 139.894 31.849 141.382 30.6637C142.87 29.4785 145.103 28.8859 148.08 28.8859H153.289V28.3898C153.289 26.984 152.89 25.9504 152.09 25.2889C151.291 24.6274 150.299 24.2966 149.113 24.2966C148.039 24.2966 147.101 24.5585 146.302 25.0822C145.503 25.5783 145.007 26.3225 144.814 27.3148H139.645C139.783 25.8264 140.279 24.5309 141.134 23.4284C142.016 22.3258 143.146 21.4852 144.524 20.9063C145.902 20.2999 147.446 19.9967 149.155 19.9967C152.077 19.9967 154.378 20.7272 156.059 22.188C157.741 23.6489 158.581 25.7161 158.581 28.3898V41H154.075L153.579 37.6924C152.972 38.7949 152.118 39.7045 151.015 40.4212C149.94 41.1378 148.548 41.4961 146.84 41.4961ZM148.039 37.3616C149.554 37.3616 150.726 36.8655 151.553 35.8732C152.407 34.8809 152.945 33.6544 153.165 32.1935H148.659C147.253 32.1935 146.247 32.4554 145.641 32.9791C145.034 33.4752 144.731 34.0954 144.731 34.8396C144.731 35.6389 145.034 36.2591 145.641 36.7001C146.247 37.1411 147.046 37.3616 148.039 37.3616Z" fill="#08ADAD"/>
</svg>
